<svg width="708" height="594" viewBox="0 0 708 594" fill="none" xmlns="http://www.w3.org/2000/svg">
<mask id="mask0" mask-type="alpha" maskUnits="userSpaceOnUse" x="0" y="0" width="708" height="594">
<path d="M0 2.99999C0 1.34313 1.34315 0 3 0H708V594H3C1.34315 594 0 592.657 0 591V2.99999Z" fill="#C5003E"/>
</mask>
<g mask="url(#mask0)">
<rect x="378.477" y="43.2157" width="57.4719" height="33.6926" transform="rotate(-26.0434 378.477 43.2157)" stroke="#B40039" stroke-width="4"/>
<path d="M381.811 41.7266L413.176 48.7731L426.89 19.6983L381.811 41.7266Z" stroke="#B40039" stroke-width="4"/>
<rect x="252.104" y="43.2157" width="57.4719" height="33.6926" transform="rotate(-26.0434 252.104 43.2157)" stroke="#B40039" stroke-width="4"/>
<path d="M255.439 41.7266L286.803 48.7731L300.517 19.6983L255.439 41.7266Z" stroke="#B40039" stroke-width="4"/>
<rect x="630.92" y="43.2157" width="57.4719" height="33.6926" transform="rotate(-26.0434 630.92 43.2157)" stroke="#B40039" stroke-width="4"/>
<path d="M634.255 41.7266L665.62 48.7731L679.333 19.6983L634.255 41.7266Z" stroke="#B40039" stroke-width="4"/>
<rect x="504.548" y="43.2157" width="57.4719" height="33.6926" transform="rotate(-26.0434 504.548 43.2157)" stroke="#B40039" stroke-width="4"/>
<path d="M507.882 41.7266L539.247 48.7731L552.96 19.6983L507.882 41.7266Z" stroke="#B40039" stroke-width="4"/>
<rect x="125.731" y="43.2157" width="57.4719" height="33.6926" transform="rotate(-26.0434 125.731 43.2157)" stroke="#B40039" stroke-width="4"/>
<path d="M129.066 41.7266L160.431 48.7731L174.144 19.6983L129.066 41.7266Z" stroke="#B40039" stroke-width="4"/>
<rect x="-0.641685" y="43.2157" width="57.4719" height="33.6926" transform="rotate(-26.0434 -0.641685 43.2157)" stroke="#B40039" stroke-width="4"/>
<path d="M2.69285 41.7266L34.0576 48.7731L47.771 19.6983L2.69285 41.7266Z" stroke="#B40039" stroke-width="4"/>
<rect x="-0.641685" y="232.774" width="57.4719" height="33.6926" transform="rotate(-26.0434 -0.641685 232.774)" stroke="#B40039" stroke-width="4"/>
<path d="M2.69285 231.285L34.0576 238.332L47.771 209.257L2.69285 231.285Z" stroke="#B40039" stroke-width="4"/>
<rect x="28.3188" y="132.729" width="57.4719" height="33.6926" transform="rotate(-26.0434 28.3188 132.729)" stroke="#B40039" stroke-width="4"/>
<path d="M31.6533 131.24L63.0181 138.287L76.7314 109.212L31.6533 131.24Z" stroke="#B40039" stroke-width="4"/>
<rect x="458.776" y="129.438" width="57.4719" height="33.6926" transform="rotate(-26.0434 458.776 129.438)" stroke="#B40039" stroke-width="4"/>
<path d="M462.111 127.949L493.476 134.996L507.189 105.921L462.111 127.949Z" stroke="#B40039" stroke-width="4"/>
<rect x="602.548" y="129.438" width="57.4719" height="33.6926" transform="rotate(-26.0434 602.548 129.438)" stroke="#B40039" stroke-width="4"/>
<path d="M605.882 127.949L637.247 134.996L650.96 105.921L605.882 127.949Z" stroke="#B40039" stroke-width="4"/>
<rect x="630.92" y="224.292" width="57.4719" height="33.6926" transform="rotate(-26.0434 630.92 224.292)" stroke="#B40039" stroke-width="4"/>
<path d="M634.255 222.803L665.62 229.849L679.333 200.774L634.255 222.803Z" stroke="#B40039" stroke-width="4"/>
<rect x="504.548" y="224.292" width="57.4719" height="33.6926" transform="rotate(-26.0434 504.548 224.292)" stroke="#B40039" stroke-width="4"/>
<path d="M507.882 222.803L539.247 229.849L552.96 200.774L507.882 222.803Z" stroke="#B40039" stroke-width="4"/>
<rect x="602.548" y="310.515" width="57.4719" height="33.6926" transform="rotate(-26.0434 602.548 310.515)" stroke="#B40039" stroke-width="4"/>
<path d="M605.882 309.025L637.247 316.072L650.96 286.997L605.882 309.025Z" stroke="#B40039" stroke-width="4"/>
<rect x="458.776" y="320.314" width="57.4719" height="33.6926" transform="rotate(-26.0434 458.776 320.314)" stroke="#B40039" stroke-width="4"/>
<path d="M462.111 318.825L493.476 325.872L507.189 296.797L462.111 318.825Z" stroke="#B40039" stroke-width="4"/>
<rect x="171.805" y="132.729" width="57.4719" height="33.6926" transform="rotate(-26.0434 171.805 132.729)" stroke="#B40039" stroke-width="4"/>
<path d="M175.139 131.24L206.504 138.287L220.217 109.212L175.139 131.24Z" stroke="#B40039" stroke-width="4"/>
<rect x="315.291" y="132.729" width="57.4719" height="33.6926" transform="rotate(-26.0434 315.291 132.729)" stroke="#B40039" stroke-width="4"/>
<path d="M318.625 131.24L349.99 138.287L363.703 109.212L318.625 131.24Z" stroke="#B40039" stroke-width="4"/>
<rect x="378.477" y="400.292" width="57.4719" height="33.6926" transform="rotate(-26.0434 378.477 400.292)" stroke="#B40039" stroke-width="4"/>
<path d="M381.812 398.803L413.176 405.849L426.89 376.774L381.812 398.803Z" stroke="#B40039" stroke-width="4"/>
<rect x="252.104" y="400.292" width="57.4719" height="33.6926" transform="rotate(-26.0434 252.104 400.292)" stroke="#B40039" stroke-width="4"/>
<path d="M255.439 398.803L286.803 405.849L300.517 376.774L255.439 398.803Z" stroke="#B40039" stroke-width="4"/>
<rect x="630.92" y="400.292" width="57.4719" height="33.6926" transform="rotate(-26.0434 630.92 400.292)" stroke="#B40039" stroke-width="4"/>
<path d="M634.255 398.803L665.62 405.849L679.333 376.774L634.255 398.803Z" stroke="#B40039" stroke-width="4"/>
<rect x="504.548" y="400.292" width="57.4719" height="33.6926" transform="rotate(-26.0434 504.548 400.292)" stroke="#B40039" stroke-width="4"/>
<path d="M507.882 398.803L539.247 405.849L552.96 376.774L507.882 398.803Z" stroke="#B40039" stroke-width="4"/>
<rect x="125.731" y="400.292" width="57.4719" height="33.6926" transform="rotate(-26.0434 125.731 400.292)" stroke="#B40039" stroke-width="4"/>
<path d="M129.066 398.803L160.431 405.849L174.144 376.774L129.066 398.803Z" stroke="#B40039" stroke-width="4"/>
<rect x="-0.641624" y="400.292" width="57.4719" height="33.6926" transform="rotate(-26.0434 -0.641624 400.292)" stroke="#B40039" stroke-width="4"/>
<path d="M2.69291 398.803L34.0577 405.849L47.7711 376.774L2.69291 398.803Z" stroke="#B40039" stroke-width="4"/>
<rect x="378.477" y="576.292" width="57.4719" height="33.6926" transform="rotate(-26.0434 378.477 576.292)" stroke="#B40039" stroke-width="4"/>
<path d="M381.812 574.803L413.176 581.849L426.89 552.774L381.812 574.803Z" stroke="#B40039" stroke-width="4"/>
<rect x="252.104" y="576.292" width="57.4719" height="33.6926" transform="rotate(-26.0434 252.104 576.292)" stroke="#B40039" stroke-width="4"/>
<path d="M255.439 574.803L286.803 581.849L300.517 552.774L255.439 574.803Z" stroke="#B40039" stroke-width="4"/>
<rect x="630.92" y="576.292" width="57.4719" height="33.6926" transform="rotate(-26.0434 630.92 576.292)" stroke="#B40039" stroke-width="4"/>
<path d="M634.255 574.803L665.62 581.849L679.333 552.774L634.255 574.803Z" stroke="#B40039" stroke-width="4"/>
<rect x="504.548" y="576.292" width="57.4719" height="33.6926" transform="rotate(-26.0434 504.548 576.292)" stroke="#B40039" stroke-width="4"/>
<path d="M507.882 574.803L539.247 581.849L552.96 552.774L507.882 574.803Z" stroke="#B40039" stroke-width="4"/>
<rect x="125.731" y="576.292" width="57.4719" height="33.6926" transform="rotate(-26.0434 125.731 576.292)" stroke="#B40039" stroke-width="4"/>
<path d="M129.066 574.803L160.431 581.849L174.144 552.774L129.066 574.803Z" stroke="#B40039" stroke-width="4"/>
<rect x="-0.641624" y="576.292" width="57.4719" height="33.6926" transform="rotate(-26.0434 -0.641624 576.292)" stroke="#B40039" stroke-width="4"/>
<path d="M2.69291 574.803L34.0577 581.849L47.7711 552.774L2.69291 574.803Z" stroke="#B40039" stroke-width="4"/>
<rect x="28.3188" y="489.806" width="57.4719" height="33.6926" transform="rotate(-26.0434 28.3188 489.806)" stroke="#B40039" stroke-width="4"/>
<path d="M31.6534 488.316L63.0181 495.363L76.7315 466.288L31.6534 488.316Z" stroke="#B40039" stroke-width="4"/>
<rect x="458.776" y="486.515" width="57.4719" height="33.6926" transform="rotate(-26.0434 458.776 486.515)" stroke="#B40039" stroke-width="4"/>
<path d="M462.111 485.025L493.476 492.072L507.189 462.997L462.111 485.025Z" stroke="#B40039" stroke-width="4"/>
<rect x="602.548" y="486.515" width="57.4719" height="33.6926" transform="rotate(-26.0434 602.548 486.515)" stroke="#B40039" stroke-width="4"/>
<path d="M605.882 485.025L637.247 492.072L650.96 462.997L605.882 485.025Z" stroke="#B40039" stroke-width="4"/>
<rect x="171.805" y="489.806" width="57.4719" height="33.6926" transform="rotate(-26.0434 171.805 489.806)" stroke="#B40039" stroke-width="4"/>
<path d="M175.139 488.316L206.504 495.363L220.217 466.288L175.139 488.316Z" stroke="#B40039" stroke-width="4"/>
<rect x="315.291" y="489.806" width="57.4719" height="33.6926" transform="rotate(-26.0434 315.291 489.806)" stroke="#B40039" stroke-width="4"/>
<path d="M318.625 488.316L349.99 495.363L363.703 466.288L318.625 488.316Z" stroke="#B40039" stroke-width="4"/>
<rect x="376.502" y="227.51" width="57.4719" height="33.6926" transform="rotate(-26.0434 376.502 227.51)" stroke="#B40039" stroke-width="4"/>
<path d="M379.837 226.021L411.202 233.067L424.915 203.992L379.837 226.021Z" stroke="#B40039" stroke-width="4"/>
<rect x="250.13" y="227.51" width="57.4719" height="33.6926" transform="rotate(-26.0434 250.13 227.51)" stroke="#B40039" stroke-width="4"/>
<path d="M253.464 226.021L284.829 233.067L298.542 203.992L253.464 226.021Z" stroke="#B40039" stroke-width="4"/>
<rect x="123.757" y="227.51" width="57.4719" height="33.6926" transform="rotate(-26.0434 123.757 227.51)" stroke="#B40039" stroke-width="4"/>
<path d="M127.091 226.021L158.456 233.067L172.169 203.992L127.091 226.021Z" stroke="#B40039" stroke-width="4"/>
<rect x="26.3442" y="317.023" width="57.4719" height="33.6926" transform="rotate(-26.0434 26.3442 317.023)" stroke="#B40039" stroke-width="4"/>
<path d="M29.6788 315.534L61.0435 322.581L74.7569 293.506L29.6788 315.534Z" stroke="#B40039" stroke-width="4"/>
<rect x="169.83" y="317.023" width="57.4719" height="33.6926" transform="rotate(-26.0434 169.83 317.023)" stroke="#B40039" stroke-width="4"/>
<path d="M173.165 315.534L204.529 322.581L218.243 293.506L173.165 315.534Z" stroke="#B40039" stroke-width="4"/>
<rect x="313.316" y="317.023" width="57.4719" height="33.6926" transform="rotate(-26.0434 313.316 317.023)" stroke="#B40039" stroke-width="4"/>
<path d="M316.651 315.534L348.015 322.581L361.729 293.506L316.651 315.534Z" stroke="#B40039" stroke-width="4"/>
</g>
</svg>
