<svg width="708" height="594" fill="none" xmlns="http://www.w3.org/2000/svg"><mask id="a" mask-type="alpha" maskUnits="userSpaceOnUse" x="0" y="0" width="708" height="594"><path d="M0 3a3 3 0 013-3h705v594H3a3 3 0 01-3-3V3z" fill="#C5003E"/></mask><g mask="url(#a)" stroke="#B40039" stroke-width="4"><path d="M378.477 43.216l51.637-25.233 14.792 30.272-51.636 25.233z"/><path d="M381.811 41.727l31.365 7.046 13.713-29.075-45.078 22.029zM252.104 43.216l51.637-25.233 14.792 30.272-51.636 25.233z"/><path d="M255.439 41.727l31.364 7.046 13.714-29.075-45.078 22.029zM630.921 43.216l51.637-25.233 14.792 30.272-51.636 25.233z"/><path d="M634.255 41.727l31.365 7.046 13.713-29.075-45.078 22.029zM504.548 43.216l51.637-25.233 14.792 30.272-51.636 25.233z"/><path d="M507.882 41.727l31.365 7.046 13.713-29.075-45.078 22.029zM125.731 43.216l51.637-25.233 14.792 30.272-51.636 25.233z"/><path d="M129.066 41.727l31.364 7.046 13.714-29.075-45.078 22.029zM-.642 43.216l51.637-25.233 14.793 30.272L14.15 73.488z"/><path d="M2.692 41.727l31.365 7.046 13.714-29.075L2.692 41.727zM-.642 232.774l51.636-25.233 14.793 30.272-51.636 25.233z"/><path d="M2.692 231.285l31.365 7.047 13.714-29.075-45.079 22.028zM28.319 132.729l51.636-25.233 14.793 30.272L43.112 163z"/><path d="M31.653 131.24l31.365 7.047 13.713-29.075-45.078 22.028zM458.777 129.438l51.636-25.233 14.793 30.272-51.636 25.233z"/><path d="M462.111 127.949l31.365 7.047 13.714-29.075-45.079 22.028zM602.548 129.438l51.636-25.233 14.793 30.272-51.636 25.233z"/><path d="M605.882 127.949l31.365 7.047 13.714-29.075-45.079 22.028zM630.921 224.292l51.636-25.233 14.793 30.272-51.636 25.233z"/><path d="M634.255 222.803l31.365 7.046 13.713-29.075-45.078 22.029zM504.548 224.292l51.636-25.233 14.793 30.272-51.636 25.233z"/><path d="M507.882 222.803l31.365 7.046 13.713-29.075-45.078 22.029zM602.548 310.515l51.636-25.233 14.793 30.272-51.636 25.233z"/><path d="M605.882 309.025l31.365 7.047 13.714-29.075-45.079 22.028zM458.777 320.314l51.636-25.233 14.793 30.272-51.636 25.233z"/><path d="M462.111 318.825l31.365 7.047 13.714-29.075-45.079 22.028zM171.804 132.729l51.636-25.233 14.793 30.272L186.597 163z"/><path d="M175.139 131.24l31.365 7.047 13.713-29.075-45.078 22.028zM315.291 132.729l51.636-25.233 14.793 30.272L330.084 163z"/><path d="M318.625 131.24l31.365 7.047 13.713-29.075-45.078 22.028zM378.477 400.292l51.636-25.233 14.793 30.272-51.636 25.233z"/><path d="M381.812 398.803l31.364 7.046 13.714-29.075-45.078 22.029zM252.104 400.292l51.636-25.233 14.793 30.272-51.636 25.233z"/><path d="M255.439 398.803l31.364 7.046 13.714-29.075-45.078 22.029zM630.921 400.292l51.636-25.233 14.793 30.272-51.636 25.233z"/><path d="M634.255 398.803l31.365 7.046 13.713-29.075-45.078 22.029zM504.548 400.292l51.636-25.233 14.793 30.272-51.636 25.233z"/><path d="M507.882 398.803l31.365 7.046 13.713-29.075-45.078 22.029zM125.731 400.292l51.636-25.233 14.793 30.272-51.636 25.233z"/><path d="M129.066 398.803l31.364 7.046 13.714-29.075-45.078 22.029zM-.642 400.292l51.636-25.233 14.793 30.272-51.636 25.233z"/><path d="M2.692 398.803l31.365 7.046 13.714-29.075-45.079 22.029zM378.477 576.292l51.636-25.233 14.793 30.272-51.636 25.233z"/><path d="M381.812 574.803l31.364 7.046 13.714-29.075-45.078 22.029zM252.104 576.292l51.636-25.233 14.793 30.272-51.636 25.233z"/><path d="M255.439 574.803l31.364 7.046 13.714-29.075-45.078 22.029zM630.921 576.292l51.636-25.233 14.793 30.272-51.636 25.233z"/><path d="M634.255 574.803l31.365 7.046 13.713-29.075-45.078 22.029zM504.548 576.292l51.636-25.233 14.793 30.272-51.636 25.233z"/><path d="M507.882 574.803l31.365 7.046 13.713-29.075-45.078 22.029zM125.731 576.292l51.636-25.233 14.793 30.272-51.636 25.233z"/><path d="M129.066 574.803l31.364 7.046 13.714-29.075-45.078 22.029zM-.642 576.292l51.636-25.233 14.793 30.272-51.636 25.233z"/><path d="M2.692 574.803l31.365 7.046 13.714-29.075-45.079 22.029zM28.319 489.806l51.636-25.233 14.793 30.272-51.636 25.233z"/><path d="M31.653 488.316l31.365 7.047 13.714-29.075-45.079 22.028zM458.776 486.515l51.636-25.233 14.793 30.272-51.636 25.233z"/><path d="M462.111 485.025l31.365 7.047 13.713-29.075-45.078 22.028zM602.548 486.515l51.636-25.233 14.793 30.272-51.636 25.233z"/><path d="M605.882 485.025l31.365 7.047 13.714-29.075-45.079 22.028zM171.804 489.806l51.636-25.233 14.793 30.272-51.636 25.233z"/><path d="M175.139 488.316l31.365 7.047 13.713-29.075-45.078 22.028zM315.291 489.806l51.636-25.233 14.793 30.272-51.636 25.233z"/><path d="M318.625 488.316l31.365 7.047 13.713-29.075-45.078 22.028zM376.502 227.51l51.636-25.233 14.793 30.272-51.636 25.233z"/><path d="M379.837 226.021l31.364 7.046 13.714-29.075-45.078 22.029zM250.129 227.51l51.636-25.233 14.793 30.272-51.636 25.233z"/><path d="M253.463 226.021l31.365 7.046 13.714-29.075-45.079 22.029zM123.757 227.51l51.636-25.233 14.793 30.272-51.636 25.233z"/><path d="M127.091 226.021l31.365 7.046 13.714-29.075-45.079 22.029zM26.344 317.023L77.98 291.79l14.793 30.272-51.636 25.233z"/><path d="M29.678 315.534l31.365 7.047 13.714-29.075-45.079 22.028zM169.83 317.023l51.636-25.233 14.793 30.272-51.636 25.233z"/><path d="M173.164 315.534l31.365 7.047 13.713-29.075-45.078 22.028zM313.316 317.023l51.636-25.233 14.793 30.272-51.636 25.233z"/><path d="M316.65 315.534l31.365 7.047 13.714-29.075-45.079 22.028z"/></g></svg>