<svg width="712" height="602" viewBox="0 0 712 602" fill="none" xmlns="http://www.w3.org/2000/svg">
<mask id="mask0" mask-type="alpha" maskUnits="userSpaceOnUse" x="4" y="0" width="708" height="594">
<path d="M4 2.99999C4 1.34313 5.34315 0 7 0H712V594H7C5.34315 594 4 592.657 4 591V2.99999Z" fill="#C5003E"/>
</mask>
<g mask="url(#mask0)">
<rect x="382.478" y="43.2157" width="57.4719" height="33.6926" transform="rotate(-26.0434 382.478 43.2157)" stroke="white" stroke-width="4"/>
<path d="M385.813 41.7266L417.177 48.7731L430.891 19.6983L385.813 41.7266Z" stroke="white" stroke-width="4"/>
<rect x="256.105" y="43.2157" width="57.4719" height="33.6926" transform="rotate(-26.0434 256.105 43.2157)" stroke="white" stroke-width="4"/>
<path d="M259.44 41.7266L290.804 48.7731L304.518 19.6983L259.44 41.7266Z" stroke="white" stroke-width="4"/>
<rect x="634.921" y="43.2157" width="57.4719" height="33.6926" transform="rotate(-26.0434 634.921 43.2157)" stroke="white" stroke-width="4"/>
<path d="M638.256 41.7266L669.621 48.7731L683.334 19.6983L638.256 41.7266Z" stroke="white" stroke-width="4"/>
<rect x="508.548" y="43.2157" width="57.4719" height="33.6926" transform="rotate(-26.0434 508.548 43.2157)" stroke="white" stroke-width="4"/>
<path d="M511.883 41.7266L543.248 48.7731L556.961 19.6983L511.883 41.7266Z" stroke="white" stroke-width="4"/>
<rect x="129.732" y="43.2157" width="57.4719" height="33.6926" transform="rotate(-26.0434 129.732 43.2157)" stroke="white" stroke-width="4"/>
<path d="M133.067 41.7266L164.431 48.7731L178.145 19.6983L133.067 41.7266Z" stroke="white" stroke-width="4"/>
<rect x="3.35862" y="43.2157" width="57.4719" height="33.6926" transform="rotate(-26.0434 3.35862 43.2157)" stroke="white" stroke-width="4"/>
<path d="M6.69346 41.7266L38.0582 48.7731L51.7716 19.6983L6.69346 41.7266Z" stroke="white" stroke-width="4"/>
<rect x="3.35862" y="232.774" width="57.4719" height="33.6926" transform="rotate(-26.0434 3.35862 232.774)" stroke="white" stroke-width="4"/>
<path d="M6.69346 231.285L38.0582 238.332L51.7716 209.257L6.69346 231.285Z" stroke="white" stroke-width="4"/>
<rect x="32.3196" y="132.729" width="57.4719" height="33.6926" transform="rotate(-26.0434 32.3196 132.729)" stroke="white" stroke-width="4"/>
<path d="M35.6544 131.24L67.0192 138.287L80.7325 109.212L35.6544 131.24Z" stroke="white" stroke-width="4"/>
<rect x="462.777" y="129.438" width="57.4719" height="33.6926" transform="rotate(-26.0434 462.777 129.438)" stroke="white" stroke-width="4"/>
<path d="M466.111 127.949L497.476 134.996L511.19 105.921L466.111 127.949Z" stroke="white" stroke-width="4"/>
<rect x="606.548" y="129.438" width="57.4719" height="33.6926" transform="rotate(-26.0434 606.548 129.438)" stroke="white" stroke-width="4"/>
<path d="M609.883 127.949L641.248 134.996L654.961 105.921L609.883 127.949Z" stroke="white" stroke-width="4"/>
<rect x="634.921" y="224.292" width="57.4719" height="33.6926" transform="rotate(-26.0434 634.921 224.292)" stroke="white" stroke-width="4"/>
<path d="M638.256 222.803L669.621 229.849L683.334 200.774L638.256 222.803Z" stroke="white" stroke-width="4"/>
<rect x="508.548" y="224.292" width="57.4719" height="33.6926" transform="rotate(-26.0434 508.548 224.292)" stroke="white" stroke-width="4"/>
<path d="M511.883 222.803L543.248 229.849L556.961 200.774L511.883 222.803Z" stroke="white" stroke-width="4"/>
<rect x="606.548" y="310.515" width="57.4719" height="33.6926" transform="rotate(-26.0434 606.548 310.515)" stroke="white" stroke-width="4"/>
<path d="M609.883 309.025L641.248 316.072L654.961 286.997L609.883 309.025Z" stroke="white" stroke-width="4"/>
<rect x="462.777" y="320.314" width="57.4719" height="33.6926" transform="rotate(-26.0434 462.777 320.314)" stroke="white" stroke-width="4"/>
<path d="M466.111 318.825L497.476 325.872L511.19 296.797L466.111 318.825Z" stroke="white" stroke-width="4"/>
<rect x="175.806" y="132.729" width="57.4719" height="33.6926" transform="rotate(-26.0434 175.806 132.729)" stroke="white" stroke-width="4"/>
<path d="M179.141 131.24L210.506 138.287L224.219 109.212L179.141 131.24Z" stroke="white" stroke-width="4"/>
<rect x="319.29" y="132.729" width="57.4719" height="33.6926" transform="rotate(-26.0434 319.29 132.729)" stroke="white" stroke-width="4"/>
<path d="M322.625 131.24L353.99 138.287L367.703 109.212L322.625 131.24Z" stroke="white" stroke-width="4"/>
<rect x="382.478" y="400.292" width="57.4719" height="33.6926" transform="rotate(-26.0434 382.478 400.292)" stroke="white" stroke-width="4"/>
<path d="M385.813 398.803L417.177 405.849L430.891 376.774L385.813 398.803Z" stroke="white" stroke-width="4"/>
<rect x="256.105" y="400.292" width="57.4719" height="33.6926" transform="rotate(-26.0434 256.105 400.292)" stroke="white" stroke-width="4"/>
<path d="M259.44 398.803L290.804 405.849L304.518 376.774L259.44 398.803Z" stroke="white" stroke-width="4"/>
<rect x="634.921" y="400.292" width="57.4719" height="33.6926" transform="rotate(-26.0434 634.921 400.292)" stroke="white" stroke-width="4"/>
<path d="M638.256 398.803L669.621 405.849L683.334 376.774L638.256 398.803Z" stroke="white" stroke-width="4"/>
<rect x="508.548" y="400.292" width="57.4719" height="33.6926" transform="rotate(-26.0434 508.548 400.292)" stroke="white" stroke-width="4"/>
<path d="M511.883 398.803L543.248 405.849L556.961 376.774L511.883 398.803Z" stroke="white" stroke-width="4"/>
<rect x="129.732" y="400.292" width="57.4719" height="33.6926" transform="rotate(-26.0434 129.732 400.292)" stroke="white" stroke-width="4"/>
<path d="M133.067 398.803L164.431 405.849L178.145 376.774L133.067 398.803Z" stroke="white" stroke-width="4"/>
<rect x="3.35862" y="400.292" width="57.4719" height="33.6926" transform="rotate(-26.0434 3.35862 400.292)" stroke="white" stroke-width="4"/>
<path d="M6.69346 398.803L38.0582 405.849L51.7716 376.774L6.69346 398.803Z" stroke="white" stroke-width="4"/>
<rect x="382.478" y="576.292" width="57.4719" height="33.6926" transform="rotate(-26.0434 382.478 576.292)" stroke="white" stroke-width="4"/>
<path d="M385.813 574.803L417.177 581.849L430.891 552.774L385.813 574.803Z" stroke="white" stroke-width="4"/>
<rect x="256.105" y="576.292" width="57.4719" height="33.6926" transform="rotate(-26.0434 256.105 576.292)" stroke="white" stroke-width="4"/>
<path d="M259.44 574.803L290.804 581.849L304.518 552.774L259.44 574.803Z" stroke="white" stroke-width="4"/>
<rect x="634.921" y="576.292" width="57.4719" height="33.6926" transform="rotate(-26.0434 634.921 576.292)" stroke="white" stroke-width="4"/>
<path d="M638.256 574.803L669.621 581.849L683.334 552.774L638.256 574.803Z" stroke="white" stroke-width="4"/>
<rect x="508.548" y="576.292" width="57.4719" height="33.6926" transform="rotate(-26.0434 508.548 576.292)" stroke="white" stroke-width="4"/>
<path d="M511.883 574.803L543.248 581.849L556.961 552.774L511.883 574.803Z" stroke="white" stroke-width="4"/>
<rect x="129.732" y="576.292" width="57.4719" height="33.6926" transform="rotate(-26.0434 129.732 576.292)" stroke="white" stroke-width="4"/>
<path d="M133.067 574.803L164.431 581.849L178.145 552.774L133.067 574.803Z" stroke="white" stroke-width="4"/>
<rect x="3.35862" y="576.292" width="57.4719" height="33.6926" transform="rotate(-26.0434 3.35862 576.292)" stroke="white" stroke-width="4"/>
<path d="M6.69346 574.803L38.0582 581.849L51.7716 552.774L6.69346 574.803Z" stroke="white" stroke-width="4"/>
<rect x="32.3196" y="489.806" width="57.4719" height="33.6926" transform="rotate(-26.0434 32.3196 489.806)" stroke="white" stroke-width="4"/>
<path d="M35.6544 488.316L67.0192 495.363L80.7325 466.288L35.6544 488.316Z" stroke="white" stroke-width="4"/>
<rect x="462.777" y="486.515" width="57.4719" height="33.6926" transform="rotate(-26.0434 462.777 486.515)" stroke="white" stroke-width="4"/>
<path d="M466.111 485.025L497.476 492.072L511.19 462.997L466.111 485.025Z" stroke="white" stroke-width="4"/>
<rect x="606.548" y="486.515" width="57.4719" height="33.6926" transform="rotate(-26.0434 606.548 486.515)" stroke="white" stroke-width="4"/>
<path d="M609.883 485.025L641.248 492.072L654.961 462.997L609.883 485.025Z" stroke="white" stroke-width="4"/>
<rect x="175.806" y="489.806" width="57.4719" height="33.6926" transform="rotate(-26.0434 175.806 489.806)" stroke="white" stroke-width="4"/>
<path d="M179.141 488.316L210.506 495.363L224.219 466.288L179.141 488.316Z" stroke="white" stroke-width="4"/>
<rect x="319.29" y="489.806" width="57.4719" height="33.6926" transform="rotate(-26.0434 319.29 489.806)" stroke="white" stroke-width="4"/>
<path d="M322.625 488.316L353.99 495.363L367.703 466.288L322.625 488.316Z" stroke="white" stroke-width="4"/>
<rect x="380.503" y="227.51" width="57.4719" height="33.6926" transform="rotate(-26.0434 380.503 227.51)" stroke="white" stroke-width="4"/>
<path d="M383.838 226.021L415.203 233.067L428.916 203.992L383.838 226.021Z" stroke="white" stroke-width="4"/>
<rect x="254.13" y="227.51" width="57.4719" height="33.6926" transform="rotate(-26.0434 254.13 227.51)" stroke="white" stroke-width="4"/>
<path d="M257.465 226.021L288.83 233.067L302.543 203.992L257.465 226.021Z" stroke="white" stroke-width="4"/>
<rect x="127.757" y="227.51" width="57.4719" height="33.6926" transform="rotate(-26.0434 127.757 227.51)" stroke="white" stroke-width="4"/>
<path d="M131.092 226.021L162.457 233.067L176.17 203.992L131.092 226.021Z" stroke="white" stroke-width="4"/>
<rect x="30.3449" y="317.023" width="57.4719" height="33.6926" transform="rotate(-26.0434 30.3449 317.023)" stroke="white" stroke-width="4"/>
<path d="M33.6798 315.534L65.0446 322.581L78.7579 293.506L33.6798 315.534Z" stroke="white" stroke-width="4"/>
<rect x="173.831" y="317.023" width="57.4719" height="33.6926" transform="rotate(-26.0434 173.831 317.023)" stroke="white" stroke-width="4"/>
<path d="M177.166 315.534L208.531 322.581L222.244 293.506L177.166 315.534Z" stroke="white" stroke-width="4"/>
<rect x="317.318" y="317.023" width="57.4719" height="33.6926" transform="rotate(-26.0434 317.318 317.023)" stroke="white" stroke-width="4"/>
<path d="M320.652 315.534L352.017 322.581L365.731 293.506L320.652 315.534Z" stroke="white" stroke-width="4"/>
</g>
</svg>
