<svg width="4" height="17" viewBox="0 0 4 17" fill="none" xmlns="http://www.w3.org/2000/svg">
<path d="M3.35059 11.1982H0.772461L0.407227 0.359375H3.71582L3.35059 11.1982ZM2.06152 12.8955C2.58431 12.8955 3.00326 13.0495 3.31836 13.3574C3.64062 13.6654 3.80176 14.0592 3.80176 14.5391C3.80176 15.0117 3.64062 15.402 3.31836 15.71C3.00326 16.0179 2.58431 16.1719 2.06152 16.1719C1.5459 16.1719 1.12695 16.0179 0.804688 15.71C0.489583 15.402 0.332031 15.0117 0.332031 14.5391C0.332031 14.0664 0.489583 13.6761 0.804688 13.3682C1.12695 13.0531 1.5459 12.8955 2.06152 12.8955Z" fill="#A74444"/>
</svg>
